PathFileType	4	(X/Y/Z)	S01_0015_Gait_markers.trc
DataRate	CameraRate	NumFrames	NumMarkers	Units	OrigDataRate	OrigDataStartFrame	OrigNumFrames
250.000000	250.000000	4	54	mm	250.000000	313	358
Frame#	Time	HEAD_ANT			R_HEAD			L_HEAD			C7			R_BACK			L_BACK			STERNUM			R_ACROMION			R_HUM_PROX			R_HUM_ANT			R_HUM_POST			R_ELBOW_LAT			R_ELBOW_MED			R_FOREARM			R_WIRST_LAT			R_WRITS_MED			R_HAND			L_ACROMION			L_HUM_PROX			L_HUM_ANT			L_HUM_POST			L_ELBOW_LAT			L_ELBOW_MED			L_FOREARM			L_WRIST_LAT			L_WIRST_MED			L_HAND			R_ILIAC			SACRUM			L_ILIAC			R_GTROCH			R_THIGH__1			R_THIGH_2			R_THIGH_3			R_THIGH_4			R_SHANK_1			R_SHANK_2			R_SHANK_3			R_SHANK_4			R_HEEL			R_FOOT_LAT			R_FOOT_MED			L_GTROCH			L_THIGH_1			L_THIGH_2			L_THIGH_3			L_THIGH_4			L_SHANK_1			L_SHANK_2			L_SHANK_3			L_SHANK_4			L_HEEL			L_FOOT_LAT			L_FOOT_MED			
		X1	Y1	Z1	X2	Y2	Z2	X3	Y3	Z3	X4	Y4	Z4	X5	Y5	Z5	X6	Y6	Z6	X7	Y7	Z7	X8	Y8	Z8	X9	Y9	Z9	X10	Y10	Z10	X11	Y11	Z11	X12	Y12	Z12	X13	Y13	Z13	X14	Y14	Z14	X15	Y15	Z15	X16	Y16	Z16	X17	Y17	Z17	X18	Y18	Z18	X19	Y19	Z19	X20	Y20	Z20	X21	Y21	Z21	X22	Y22	Z22	X23	Y23	Z23	X24	Y24	Z24	X25	Y25	Z25	X26	Y26	Z26	X27	Y27	Z27	X28	Y28	Z28	X29	Y29	Z29	X30	Y30	Z30	X31	Y31	Z31	X32	Y32	Z32	X33	Y33	Z33	X34	Y34	Z34	X35	Y35	Z35	X36	Y36	Z36	X37	Y37	Z37	X38	Y38	Z38	X39	Y39	Z39	X40	Y40	Z40	X41	Y41	Z41	X42	Y42	Z42	X43	Y43	Z43	X44	Y44	Z44	X45	Y45	Z45	X46	Y46	Z46	X47	Y47	Z47	X48	Y48	Z48	X49	Y49	Z49	X50	Y50	Z50	X51	Y51	Z51	X52	Y52	Z52	X53	Y53	Z53	X54	Y54	Z54	

314	1.252	1839.89501953125	1705.156860351562	-337.3619995117184	1779.054077148438	1655.865356445312	-260.1415100097653	1780.525634765625	1655.051513671875	-406.4429016113278	1641.890747070312	1487.823852539062	-334.0684814453122	1561.595703125	1292.3447265625	-272.9132080078122	1566.21484375	1298.760986328125	-411.7017517089841	1815.186279296875	1320.039672851562	-330.596984863281	1715.015869140625	1433.656127929688	-159.9203338623044	1661.8603515625	1274.376098632812	-74.90292358398409	1716.78271484375	1184.484375	-69.03630828857395	1595.582397460938	1196.239013671875	-67.96327972412082	1633.569702148438	1085.75634765625	-58.20007705688452	1616.701293945312	1083.5654296875	-140.435607910156	1717.775390625	895.7554931640625	-49.11676025390605	1753.855224609375	827.0082397460938	-86.24927520751935	1682.064086914062	809.2005615234375	-53.88412857055646	1744.349609375	737.93798828125	-31.92615318298324	1726.620849609375	1444.160766601562	-499.6724853515622	1711.863403320312	1281.374633789063	-598.1052856445309	1775.875122070312	1202.553588867188	-595.638488769531	1656.74169921875	1203.441528320313	-630.3007202148435	1718.950073242188	1100.345092773438	-637.6925659179685	1663.297485351562	1088.99609375	-582.6779785156248	1845.172729492188	940.9331054687501	-600.8397827148435	1877.9833984375	887.3768920898439	-543.4703979492185	1844.46728515625	856.7769165039064	-608.044494628906	1927.742797851562	815.2661132812501	-584.7452392578123	1707.28076171875	1034.397338867188	-170.1461334228513	1576.315795898438	1012.173095703125	-333.4242553710935	1688.690673828125	1035.634155273438	-515.2372436523435	1675.529541015625	884.194580078125	-157.1472167968748	1809.669311523438	625.5529174804688	-181.6634826660155	1855.886108398438	661.9793701171875	-177.4904937744139	1897.560668945312	570.1668701171875	-216.566436767578	1836.193359375	551.1417846679688	-205.0464935302733	1898.1962890625	335.7428588867188	-202.1952209472655	1957.2783203125	334.1667785644532	-219.1119842529296	1979.429077148438	252.4797821044922	-237.0348968505859	1917.302856445312	237.8845977783204	-223.995132446289	1947.562622070312	29.0494289398194	-311.5556945800781	2108.148681640625	50.20133972167974	-226.8683929443359	2153.4580078125	84.46266937255866	-313.5834350585938	1642.50146484375	931.1787719726564	-516.1447753906248	1652.080200195312	638.1801757812501	-501.5780639648436	1606.087158203125	672.3309936523439	-515.4356079101561	1564.596923828125	579.1362915039064	-485.9614868164061	1625.765014648438	563.4038696289064	-477.2075805664061	1465.976806640625	327.2864685058595	-463.0943908691406	1406.441528320312	337.866424560547	-469.1266784667968	1359.923095703125	266.6553955078126	-449.6565551757812	1417.392700195312	240.568328857422	-438.0396423339843	1226.4404296875	128.2195587158204	-375.3397216796874	1371.762084960938	23.13916587829599	-436.6766662597656	1410.064453125	26.95904350280769	-331.5332946777344	
315	1.256	1845.832275390625	1704.893798828125	-336.7192687988277	1785.0009765625	1655.547241210938	-259.5081176757809	1786.452514648438	1654.734619140625	-405.6785888671872	1647.92138671875	1487.32080078125	-333.4779357910153	1568.078857421875	1291.816528320312	-272.4006652832028	1572.508178710938	1298.277954101562	-411.4010620117185	1821.580200195312	1319.7685546875	-330.2664794921872	1721.281127929688	1433.157104492188	-159.4176330566403	1668.29296875	1273.426879882812	-74.26375579833956	1723.363403320312	1183.933349609375	-68.71299743652318	1602.065307617188	1195.600708007812	-67.35742187499973	1640.105712890625	1085.234741210938	-57.64488983154273	1623.0068359375	1082.988037109375	-140.0031738281248	1724.121704101562	895.08447265625	-49.02505874633769	1760.069580078125	826.3760375976562	-86.17081451415997	1688.319580078125	808.5704956054688	-53.69719696044904	1750.446533203125	737.0777587890625	-32.02523040771468	1732.8525390625	1443.935913085938	-499.1357727050778	1717.759155273438	1281.255493164063	-597.6874389648434	1781.603149414062	1202.230590820313	-595.257629394531	1662.661865234375	1203.24267578125	-629.626281738281	1724.35791015625	1100.1298828125	-637.2862548828123	1668.975708007812	1088.9609375	-582.146545410156	1850.529541015625	940.5084228515626	-600.8002929687498	1883.3974609375	886.7825927734376	-543.670959472656	1849.568359375	856.4237670898439	-608.0394897460935	1932.809936523438	814.6331787109376	-585.0363159179685	1714.493896484375	1034.320434570312	-169.7319030761716	1581.870483398438	1011.619140625	-332.9830627441404	1695.051025390625	1035.167846679688	-515.2152709960935	1682.517456054688	884.0736083984375	-156.9387969970701	1816.872436523438	625.7659912109375	-182.3861389160155	1862.99609375	662.02197265625	-178.1571960449217	1904.552734375	569.9569091796875	-217.1904144287108	1843.455200195312	551.1957397460938	-205.2686462402343	1903.7734375	336.1328430175782	-202.605239868164	1962.702026367188	333.3449707031251	-220.0476684570312	1983.837036132812	251.5648651123047	-237.958999633789	1921.527099609375	237.7587890625001	-224.7574310302734	1948.801025390625	30.14444923400886	-312.0509033203125	2109.310546875	45.74190902709966	-227.1947479248047	2156.507568359375	78.23113250732429	-314.3522033691406	1649.104248046875	930.5359497070314	-515.926330566406	1659.562255859375	637.4979858398439	-501.4777221679686	1613.527709960938	671.6898193359376	-515.4672851562499	1572.16845703125	578.0904541015626	-486.3598632812499	1633.462036132812	562.7996826171876	-477.3358154296874	1471.185546875	327.3515014648439	-462.5833740234374	1412.09228515625	338.5417785644532	-469.6713867187499	1364.730346679688	268.2905883789064	-450.3056640624999	1421.64599609375	241.1906127929688	-438.3459167480468	1229.289428710938	132.1373138427735	-376.1104125976562	1372.254760742188	23.53714561462412	-436.7228088378906	1408.621459960938	26.39952468872078	-331.1904907226562	
316	1.26	1851.849731445312	1704.713989257812	-335.9907226562496	1790.994506835938	1655.217529296875	-258.8812866210934	1792.342651367188	1654.38720703125	-405.0169677734372	1653.911254882812	1487.031127929688	-332.9362792968747	1574.224487304688	1291.541137695312	-272.2428894042966	1578.584594726562	1297.993408203125	-410.7032775878903	1827.853881835938	1319.638916015625	-329.8714294433591	1727.637451171875	1432.635986328125	-158.7948913574216	1674.858032226562	1272.881713867188	-73.77268218994112	1729.885009765625	1183.331909179688	-68.4122695922849	1608.618286132812	1195.027221679688	-66.89489746093723	1646.639770507812	1084.60400390625	-57.33227920532202	1629.342163085938	1082.51513671875	-139.5539093017576	1730.458862304688	894.4308471679688	-48.95857620239238	1766.29736328125	825.698486328125	-86.12049865722638	1694.524536132812	808.0347290039062	-53.37503814697248	1756.748413085938	736.37451171875	-32.10004425048812	1739.06982421875	1443.8388671875	-498.4335327148434	1723.650634765625	1281.131713867188	-597.2957153320309	1787.3984375	1202.070556640625	-595.017639160156	1668.169555664062	1203.279052734375	-628.8929443359373	1730.120849609375	1099.924682617188	-636.8153686523435	1674.487182617188	1088.77587890625	-581.7306518554685	1855.837036132812	940.0377807617189	-600.7683105468748	1888.705932617188	886.2680053710939	-543.7122802734373	1854.743774414062	855.9842529296876	-608.1249389648435	1937.908325195312	814.1563720703126	-585.3321533203123	1720.788208007812	1034.213012695312	-169.4763336181638	1588.432739257812	1011.242614746094	-333.2041931152341	1701.700317382812	1034.72998046875	-515.2101440429685	1689.556518554688	883.8896484375	-156.5045318603514	1823.679931640625	626.1533203125	-181.9936218261717	1870.234619140625	662.2673950195312	-179.1039123535155	1911.31494140625	570.1016235351562	-217.8006439208983	1850.163818359375	551.3355712890625	-205.5940551757811	1909.275390625	336.5119018554688	-203.6051025390624	1967.929565429688	333.1488647460938	-220.8597869873046	1988.45703125	251.1225891113282	-238.4701538085937	1925.892944335938	237.989242553711	-225.1194458007812	1949.952514648438	31.45413398742683	-312.0375671386719	2110.677734375	41.76734161376958	-227.9456634521484	2159.038818359375	72.39156341552741	-315.5788269042969	1655.719360351562	929.8543701171876	-515.693908691406	1667.22705078125	636.6917114257814	-501.6689147949218	1621.145629882812	670.8773193359376	-515.4404296874999	1579.9873046875	577.2886352539064	-486.6962585449218	1641.09521484375	561.5509033203126	-478.5025634765624	1477.16357421875	327.5638427734376	-463.8690185546874	1417.969604492188	339.8174743652345	-470.3515930175781	1369.457153320312	269.8245544433595	-450.7320556640624	1426.12890625	242.3726043701173	-439.4161987304687	1232.259887695312	136.0703887939454	-376.8330993652343	1372.653930664062	24.09490013122568	-436.7520446777344	1408.937377929688	26.48775100708015	-331.4562683105469	
317	1.264	1857.841796875	1704.629638671875	-335.4920654296871	1797.036010742188	1655.02392578125	-258.2735595703122	1798.432495117188	1654.267456054688	-404.4224853515622	1659.964721679688	1486.821533203125	-332.1725463867184	1580.4169921875	1291.343139648438	-271.6894531249997	1584.934936523438	1298.068237304688	-410.2357177734372	1834.239868164062	1319.583618164062	-329.2159729003903	1734.037231445312	1432.280883789062	-158.1717987060544	1681.400024414062	1272.346801757812	-73.22151184082003	1736.417236328125	1182.84033203125	-68.05785369873021	1615.184936523438	1194.4482421875	-66.31413269042942	1653.183837890625	1084.066528320312	-56.97047042846656	1635.54345703125	1082.171142578125	-139.075241088867	1736.872924804688	893.9031372070312	-48.7105712890623	1772.451171875	825.122802734375	-86.09331512451153	1700.82861328125	807.5153198242188	-53.1122741699217	1763.0283203125	735.6173706054688	-32.52314758300765	1745.153076171875	1443.692504882812	-497.8377075195309	1729.465209960938	1280.96923828125	-596.7473754882809	1793.133666992188	1201.85888671875	-594.6726074218748	1673.998901367188	1203.403198242188	-628.5328979492185	1735.439819335938	1099.952758789063	-636.3972167968748	1680.147338867188	1088.853759765625	-581.2692871093748	1861.066528320312	939.6430053710939	-600.7714843749998	1893.958984375	885.6735839843751	-543.759826660156	1859.710083007812	855.6345214843751	-608.249572753906	1942.871459960938	813.4668579101564	-585.5316162109373	1726.985961914062	1034.089965820312	-169.2010650634763	1595.069580078125	1011.057556152344	-333.3107910156248	1708.517333984375	1034.243286132813	-515.0911865234373	1696.906005859375	883.8299560546875	-156.2640075683592	1830.75341796875	626.7299194335938	-182.6486511230467	1877.310791015625	662.9583740234375	-179.9306335449217	1917.829467773438	570.2984619140625	-218.3171997070311	1856.785278320312	552.0220947265625	-205.4188995361327	1915.068725585938	337.3033142089844	-204.3667602539062	1973.66552734375	333.2807922363282	-221.2697143554687	1993.458618164062	250.9855651855469	-238.7652587890624	1930.550537109375	237.9557189941407	-226.0849304199218	1950.869750976562	32.22055053710945	-312.026611328125	2112.41259765625	38.75213241577153	-228.8005065917969	2160.6142578125	68.09845733642585	-316.3541870117188	1662.557861328125	929.2265625000001	-515.4429931640623	1675.130859375	636.0216674804689	-501.6250915527343	1629.05810546875	669.9970092773439	-515.4118652343749	1588.001220703125	576.1130981445314	-487.0706481933593	1649.200805664062	561.0176391601564	-477.8323974609374	1482.71240234375	327.7594604492189	-463.7771911621093	1423.999877929688	340.783905029297	-471.1569824218749	1374.412353515625	271.6792297363282	-451.5097961425781	1430.775146484375	243.0774383544923	-439.7559204101562	1235.546997070312	140.2503204345704	-377.5495300292968	1373.204956054688	24.7463207244874	-436.8020629882812	1409.1767578125	26.63341903686531	-331.6430969238281	
